<?xml version="1.0" encoding="UTF-8"?>
<svg id="Layer_1" width="363" height="54" data-name="Layer 1" xmlns="http://www.w3.org/2000/svg" version="1.1" viewBox="0 0 363 54">
  <defs>
    <style>
      .cls-1 {
        fill: #fff;
        stroke-width: 0px;
      }
    </style>
  </defs>
  <g id="RIDGE_TEXT" data-name="RIDGE TEXT">
    <g>
      <g id="R">
        <polygon class="cls-1" points="16 5.3 58.3 5.3 63.6 11.6 63.6 19.9 58.3 25.7 44.5 25.7 69.5 40.8 50.4 40.8 24.1 24.9 24.1 19.9 48.8 19.9 51.4 17.6 51.4 13.4 48.8 11.1 16 11.1 16 5.3"/>
        <rect class="cls-1" x="0" y="4.5" width="13.1" height="36.3"/>
      </g>
      <polygon id="I" class="cls-1" points="86.4 4.5 108.9 4.5 108.9 10.3 104.2 10.3 104.2 35.1 108.9 35.1 108.9 40.7 86.4 40.7 86.4 35.1 91.1 35.1 91.1 10.3 86.4 10.3 86.4 4.5"/>
      <polygon id="D" class="cls-1" points="130.4 4.5 130.4 40.8 188.4 40.7 193.7 35.1 193.7 11.1 188.4 5.3 146.3 5.3 146.3 11.1 178.2 11.1 180.4 13.4 180.4 31.2 178.2 33.5 143.7 33.5 143.7 4.5 130.4 4.5"/>
      <polygon id="G" class="cls-1" points="217.1 5.3 211.8 11.6 211.8 35.1 216.7 40.7 269.7 40.7 275.5 35.1 275.5 19.9 249.2 19.9 249.2 25.7 262.3 25.7 262.3 31.2 259.8 33.5 227.2 33.5 225 31.2 225 13.4 227.1 11.1 259.8 11.1 262.3 13.4 262.3 16.1 263.1 16.9 275.5 16.9 275.5 11.1 270.1 5.3 217.1 5.3"/>
      <g id="E">
        <polygon class="cls-1" points="293.3 5.3 348.4 5.3 348.4 11.1 306.3 11.1 306.3 33.5 348.4 33.5 348.4 40.7 293.3 40.7 293.3 5.3"/>
        <polygon class="cls-1" points="309.2 19.9 309.2 25.7 344.6 25.7 344.4 19.9 309.2 19.9"/>
      </g>
    </g>
  </g>
  <path class="cls-1" d="M359.2,13.3c-.7,0-1.4-.2-2-.5-.6-.4-1.1-.8-1.5-1.5-.4-.6-.5-1.3-.5-2s.2-1.4.5-2c.4-.6.8-1.1,1.5-1.5.6-.4,1.3-.5,2-.5s1.4.2,2,.5c.6.4,1.1.8,1.4,1.5.4.6.5,1.3.5,2s-.2,1.4-.5,2c-.4.6-.8,1.1-1.4,1.5-.6.4-1.3.5-2,.5ZM359.2,12.5c.6,0,1.1-.1,1.6-.4.5-.3.9-.7,1.1-1.2.3-.5.4-1,.4-1.6s-.1-1.1-.4-1.6c-.3-.5-.7-.9-1.1-1.1s-1-.4-1.6-.4-1.1.1-1.6.4c-.5.3-.9.7-1.2,1.1-.3.5-.4,1-.4,1.6s.1,1.1.4,1.6c.3.5.7.9,1.2,1.2.5.3,1,.4,1.6.4ZM357.9,11.2v-4.1h1.5c.5,0,.8,0,1,.2.2.2.2.4.2.8s0,.6-.1.8c0,.2-.3.3-.6.4,0,0,0,0,0,0,0,0,0,0,0,0l1,1.8h-1c0-.2-.2-.4-.3-.6,0-.2-.2-.4-.3-.6,0-.2-.2-.4-.3-.6h-.3v1.8h-.8ZM358.7,9h.5c.2,0,.4,0,.5-.2,0-.1.1-.3.1-.5s0-.3,0-.4c0-.1-.2-.2-.4-.2h-.6v1.3Z"/>
</svg>